<?xml version="1.0" encoding="UTF-8"?><svg id="Layer_2" xmlns="http://www.w3.org/2000/svg" viewBox="0 0 1732.26 453.46"><defs><style>.cls-1{fill:#fff;}</style></defs><g id="Layer_2-2"><g><path class="cls-1" d="M196.5,72.46v.77l1.44,.51c1.45,.51,1.86,3.38,1.86,3.38l1.03,18.46-2.88,2.56v1.49l3.09,2.05,.1,7.9-1.64,1.54v5.13l1.54,1.28s9.23,7.49,11.38,8.62c2.15,1.13,1.73,4.21,1.73,4.21l.26,33.41-3.22,3.22,2.38,1.49,.09,6.18c-1.49,20.95,18.51,36.52,18.51,36.52l4.38-11.85,1.37-3.74h-1.91v-11.2h4.13v-2.36h-2.76l-.19-13.78h2.95s-1.77-7.69,1.18-8.46c2.95-.77,4.73-4.13,4.53-5.13-.21-1-2.04-1.28-.65-2.28,1.38-1,1.64-5.26,1.58-6.58-.06-.55-.06-1.1,0-1.64,0,0-2.56-1.67-2.29-3.46,.09-.49,.34-.94,.71-1.28,.51-.38,1.1-.62,1.73-.72v-4.23l-2.77,6.23,3.45-11.91v9.88c.69,.06,1.36,.32,1.91,.74,2.29,2.18-1.59,4.68-1.59,4.68,.06,.55,.06,1.1,0,1.64-.08,1.28,.19,5.59,1.58,6.58,1.38,.99-.46,1.28-.65,2.28-.19,1,1.56,4.33,4.53,5.13,2.96,.79,1.18,8.46,1.18,8.46h2.95l-.19,13.78h-2.76v2.36h4.13v11.22h-1.96l1.37,3.74s5.47,14.53,6.5,17.68c1.03,3.15,5.13,4.1,5.13,4.1l14.27,4.22-3.33,5.54c-1.93,3.08-3.23,6.52-3.85,10.1l1.21,21.46h7.14s0,.91-2.28,4.03c-2.28,3.12-3.4,11.54-3.4,11.54l1.22,32.05h5.56l-2.56,3.12c-1.56,1.94-2.59,4.24-3,6.69v66.15c-25.78,.15-155.46,.14-180.33,0v-66.15c-.41-2.45-1.44-4.76-3-6.69l-2.56-3.12h5.56l1.28-32.05s-1.1-8.42-3.4-11.54c-2.29-3.12-2.28-4.03-2.28-4.03h7.14l1.21-21.46c-.61-3.59-1.92-7.02-3.85-10.1,0,0,.36,.33,.15,0l-3.33-5.54,14.19-4.09s4.09-.94,5.13-4.1c1.04-3.17,6.5-17.68,6.5-17.68l1.37-3.74h-1.96v-11.28h4.13v-2.36h-2.76l-.19-13.78h2.95s-1.77-7.69,1.18-8.46c2.95-.77,4.73-4.13,4.53-5.13-.21-1-2.04-1.28-.65-2.28,1.38-1,1.64-5.26,1.58-6.58-.06-.55-.06-1.1,0-1.64,0,0-.26-.17-.6-.45h0l-.17-.14-.09-.08-.13-.12-.15-.15h-.06l-.23-.26h0c-.66-.57-1-1.43-.94-2.29,.08-.49,.33-.94,.69-1.28,.51-.38,1.1-.62,1.73-.72h.14v-3.95l-6.86-5.59,7.55-.06v9.64c.63,.09,1.22,.34,1.73,.72,.21,.2,.39,.43,.53,.69h0s0,.06,0,.09c.05,.12,.09,.25,.12,.38,.29,1.79-2.29,3.46-2.29,3.46,.06,.55,.06,1.1,0,1.64-.08,1.28,.19,5.59,1.58,6.58,1.38,.99-.46,1.28-.65,2.28-.19,1,1.56,4.33,4.53,5.13,2.96,.79,1.18,8.46,1.18,8.46h2.95l-.09,13.88h-2.76v2.36h4.13v11.22h-1.96l1.37,3.74,4.35,11.83s20.05-15.59,18.56-36.63l.08-6.18,2.4-1.49-3.17-3.14,.26-33.41s-.42-3.08,1.73-4.21c2.15-1.13,11.38-8.62,11.38-8.62l1.54-1.28v-5.13l-1.64-1.54,.1-7.9,3.08-2.05v-1.46l-2.87-2.56,1.03-18.46s.41-2.87,1.85-3.38l1.44-.51v-.77C79.41,75.75-3.19,163.69,.09,268.87c3.29,105.18,91.22,187.79,196.41,184.5,105.18-3.29,187.79-91.22,184.5-196.41-3.14-100.56-83.93-181.35-184.5-184.5Z"/><path class="cls-1" d="M238.87,316.74c18.35,0,33.23-14.86,33.24-33.21,0-18.35-14.86-33.23-33.21-33.24-18.35,0-33.23,14.86-33.24,33.21h0c0,18.35,14.87,33.22,33.21,33.24Zm-23.79-33.64c-.41,.44-.97,.7-1.57,.74-.28-.01-.55-.09-.8-.23-.55-.29-.43-.6-.88-.92-.44-.19-.9-.32-1.37-.38-1.1-.25-1.48-.32-1.55-.54-.01-.05-.01-.1,0-.15-.02-.04-.02-.09,0-.14,0-.22,.45-.29,1.54-.55,.47-.08,.93-.22,1.37-.41,.44-.33,.33-.63,.86-.93,.24-.15,.51-.23,.78-.25,.6,.04,1.17,.29,1.59,.71,.11,.13,.23,.24,.37,.33,.24,.17,.53,.27,.82,.29,.2,.02,.41,0,.6-.07,.45-.22,.44-.74,.59-1.81,.15-1.07,1.37-1.37,2.43-1.08,1.11,.41,2.12,1.05,2.97,1.88,.82,.71,1.37,.29,1.37,.29,.16-.45,.49-.81,.92-1.02,.63-.25,1.55,.63,1.54,1.37-.01,.11,.04,.21,.12,.27,.18,.07,.37,.07,.55,0,.3-.16,.67-.74,.92-.73,.25,.01,.59,.27,.88,.48,.53,.33,1.14,.5,1.76,.49,1.19,.35,2.46,.21,3.56-.37,.44-.3,.84-.88,1.37-.82,.31,.06,.62,.16,.91,.29l.44,.18c.28,.1,.57,.18,.86,.23,.17,.02,.34,.02,.51,0,.19,0,.37-.04,.54-.12l.14-.12c.1-.1,.21-.18,.33-.25h0c.21-.16,.45-.27,.7-.34h.12c.59-.55,.55-2.21,.54-2.58,0-.89-.19-1.26,.1-1.69,.26-.49,.87-.67,1.36-.41h.02l.33,.23c.41-.28,.93-.31,1.37-.1,.42,.23,.69,.66,.71,1.14l.37,.14c.19,.09,.34,.23,.44,.41,.12,.28,.12,.59,0,.86-.15,.48-.55,.59-1.28,1.11-.7,.44-1.28,1.06-1.69,1.78,.2,.22,.32,.5,.34,.8,.12,.61-.06,1.25-.49,1.7l-.08,.07c-.15,.11-.3,.22-.45,.32-.28,.18-.6,.29-.93,.33,0,.08,0,.16,0,.23-.02,.23-.02,.47,0,.7v.38c.03,.25,.03,.5,0,.76-.14,.4-.78,.43-1.21,.59s-1.1,.73-1.51,2.29c-.2,.43-.25,.91-.14,1.37,.08,.29,.26,.56,.14,.82s-.71,.16-.96,.32c-.25,.15-.26,.21-.23,.34s.16,.18,.22,.21c.65,.32,1.14,1.37,.7,1.66-.37,.21-.8,.28-1.22,.19,0,0-.55,.15-.18,1.03,.46,.89,.7,1.87,.7,2.87-.07,.76-.73,1.31-1.49,1.25-.1,0-.19-.03-.29-.06-1.02-.37-1.48-.6-1.83-.38-.13,.1-.22,.23-.26,.38-.08,.22-.08,.46,0,.69,.04,.14,.09,.27,.16,.4,.23,.42,.28,.92,.12,1.37-.12,.19-.28,.34-.48,.44-.45,.25-.69,0-1.13,.19-.11,0-.16,.08-.85,.8-.69,.71-.78,.86-1,.82-.05,0-.1-.03-.14-.07h-.12c-.16-.15-.11-.45,0-1.3,.11-.85,.15-1.06,.12-1.15-.14-.45-.45-.51-.54-1.02-.07-.21-.07-.44,0-.65,.27-.41,.7-.68,1.18-.76,.14-.02,.28-.06,.41-.11,.22-.08,.41-.23,.55-.43,.09-.13,.14-.29,.15-.45,0-.4-.51-.62-1.37-1.21-.62-.43-.77-1.29-.34-1.91,.06-.08,.13-.16,.2-.23,.81-.6,1.75-1.01,2.75-1.18,.92-.23,.71-.77,.71-.77-.32-.28-.53-.66-.6-1.08,0-.55,1.11-.78,1.76-.45,0,0,.19,.1,.29,0s.16-.26,.14-.4-.43-.78-.33-.95c.1-.16,.45-.27,.73-.38,.45-.19,.82-.54,1.04-.97,1-1.28,1.06-2.07,.91-2.58-.15-.51-.49-.97-.26-1.37,.17-.19,.36-.36,.58-.49l.3-.21c.19-.14,.36-.31,.52-.48h0c-.1-.01-.21-.01-.32,0-.17,0-.34,.03-.51,.07-.29,.06-.58,.15-.85,.26-.15,.05-.3,.11-.44,.18-.29,.13-.59,.24-.91,.3-.55,0-.96-.51-1.37-.81-1.1-.56-2.38-.67-3.57-.32-.62,0-1.22,.18-1.73,.52-.29,.21-.51,.48-.88,.49-.37,.01-.62-.56-.93-.71-.17-.08-.38-.08-.55,0-.12,.07-.11,.23-.11,.29,0,.73-.89,1.61-1.54,1.37-.5-.17-.9-.55-1.1-1.04,0,0-.51-.43-1.37,.3-.83,.85-1.83,1.51-2.94,1.92-1.04,.27-2.29-.08-2.44-1.04-.15-.96-.16-1.59-.62-1.8-.2-.05-.41-.05-.6,0-.3,.02-.58,.12-.82,.29-.09,.07-.18,.14-.26,.22h0Z"/><path class="cls-1" d="M196.92,72.45v-.71l1.66-1.37-.34-5.93-4.39-3.73h0l-1.15-14.85s-.3-1.24,0-1.57c.69-.47,1.25-1.12,1.61-1.88,.6-1.24-.15-3.72-1.54-3.9-1.39-.18-1.1-1.37-1.1-1.37v-13.1c.65-.43,1.2-.99,1.62-1.65,.66-.96,1-2.11,.96-3.28-.05-1.5-.73-2.91-1.87-3.89-.46-.25-.86-.58-1.18-.99-.25-.42-.4-.89-.44-1.37-.14-1.49-.2-2.99-.18-4.49h0c.03-.9,.19-1.79,.47-2.65,.12-.39,.31-.76,.58-1.07,.26-.33,.59-.6,.96-.8,.44-.29,.14-2.28,.22-2.53s1.03-.66,.97-.92-.69-.37-1.11-.4-.81,.52-.81,.52c0,0-.44,1.37-.65,2.47s-1.81,.71-1.81,.71c0,0,.27-.96-1.29-.91-1.57,.05-1.66,4.12-1.66,4.12,.49-.21,.95-.49,1.37-.81,.34-.29,.74-.52,1.17-.66,.15,.17,.29,.36,.41,.55,.38,.64,.63,1.36,.71,2.1,0,.62,0,1.24,.07,1.85,0,2.07,0,3.75-.55,4.34-.34,.36-.72,.69-1.13,.97h0c-1.16,.98-1.87,2.39-1.95,3.91,0,1.97,.98,3.82,2.62,4.91l.07,13.1s.3,1.13-1.08,1.37c-1.39,.25-2.13,2.68-1.51,3.91,.36,.76,.92,1.41,1.62,1.87,.37,.33,.08,1.57,.08,1.57l-1.06,14.85h0l-4.39,3.73-.33,5.93,1.65,1.37v.71c2.1,0,4.2-.11,6.3-.11s4.26-.03,6.4,.04Z"/><g><path class="cls-1" d="M493.15,77.13c-16.53,25.57-56.26,25.96-56.26,25.96l10.23,8.65,.39,48.78,77.46,28.33s-5.91,5.12-13.38,0l.39,23.6s-13.37,22.42-36.58,0v-35.83s-5.18,16.53-28.32,12.59v26.75l-8.26,9.44s42.49,6.68,54.68,26.75c0,0,12.95-23.99,57.44-25.91l-10.62-9.07-.39-48.77-64.52-22.02v-29.13s19.28-15.35,36.19,.39v36.96s4.31-12.18,27.97-12.57l-.34-29.51,11.8-7.86c-22-1.78-42.58-11.58-57.83-27.54h-.05Z"/><path class="cls-1" d="M582.54,102.79s19.08-7.46,26.54-25.71c0,0,8.72,21.15,25.73,25.71l-11.66,9.07,.41,105.37,11.2,9.53c-5.81,1.9-11.08,5.17-15.35,9.55-5.82,6.1-10.69,15.83-10.79,15.76h0c-2.21-5.85-5.76-11.11-10.36-15.35-4.55-4.33-9.9-7.71-15.76-9.96l12.03-8.7V111.15l-12-8.36Z"/><path class="cls-1" d="M948.65,102.79s19.08-7.46,26.54-25.71c0,0,8.72,21.15,25.73,25.71l-11.66,9.07,.41,105.37,11.2,9.53c-5.81,1.9-11.08,5.17-15.35,9.55-5.82,6.1-10.69,15.83-10.78,15.76h0c-2.21-5.85-5.76-11.11-10.36-15.35-4.55-4.33-9.9-7.71-15.76-9.96l12.03-8.7V111.15l-12.01-8.36Z"/><path class="cls-1" d="M666.38,103.71c20.61-1.58,39.8-11.11,53.51-26.58,13.33,16.54,33.33,26.28,54.57,26.58l-9.92,7.09v21.62c-4.23-.05-8.43,.69-12.38,2.18-6.25,2.42-11.67,6.58-15.62,12l-.35-27.29s-14.17-19.13-32.24,0l.35,90.68s17.72,22.02,31.54,0l-.36-34.03h-24.09l-4.96-22.32,68.05,.35-10.64,11.23v52.2l8.86,7.77c-20.67,.35-39.99,10.3-52.27,26.93-13.7-15.68-33.24-25.04-54.04-25.91l9.21-8.5,1.06-106.67-10.27-7.32Z"/><path class="cls-1" d="M806.07,101.98c9.67-6.05,17.48-14.64,22.58-24.85,5.62,10.07,13.63,18.6,23.32,24.85l-9.07,9.07v44.79h36.89v-43.69l-9.07-9.79c10.15-5.74,18.2-14.58,22.97-25.22,4.84,10.81,13.01,19.78,23.32,25.6l-9.42,9.79,.38,106.92,9.07,7.15c-10.18,5.85-18.2,14.83-22.88,25.6-5.13-10.39-12.92-19.22-22.59-25.6l8.67-8.67v-41.45l-37.41-.25,.23,42.02,7.77,8.26c-9.48,6.13-17.2,14.61-22.44,24.61-4.95-10.08-12.7-18.52-22.32-24.31l7.71-8.98,.23-106.73-7.94-9.13Z"/><path class="cls-1" d="M1088.75,77.13c-16.53,25.57-56.26,25.91-56.26,25.91l10.22,8.65,.4,48.78,77.49,28.33s-5.89,5.12-13.37,0l.39,23.6s-13.37,22.42-36.58,0v-35.78s-5.12,16.53-28.33,12.59v26.75l-8.25,9.44s42.49,6.68,54.68,26.75c0,0,12.95-23.99,57.44-25.91l-10.62-9.07-.4-48.77-64.51-22.02v-29.13s19.28-15.35,36.19,.39v36.96s4.33-12.2,27.93-12.59l-.39-29.51,11.8-7.86c-22-1.78-42.58-11.58-57.83-27.54v.03Z"/><path class="cls-1" d="M1279.83,110.02l11.57-7.77c-21.36-.7-41.6-9.73-56.39-25.17-15.78,14.25-35.71,23.07-56.87,25.17l10.36,7.66-.3,107.1-10.12,8.19c21.19,2.99,40.95,12.42,56.62,27,14-15.27,33.12-24.88,53.73-27l-8.67-7.23,.05-107.94Zm-28.5,102.11c-.47,.73-6.09,9.07-16.58,9.37-11.17,.28-17.32-8.85-17.66-9.37V117.19c.27-.41,6.76-9.96,18.14-9.37,10.1,.53,15.54,8.52,16.05,9.37l.05,94.95Z"/><path class="cls-1" d="M1427.32,112.41c4-2.79,8-5.58,12-8.37-22.61,0-44.1-9.81-58.9-26.9-13.84,17.54-35.15,27.53-57.49,26.96l11.27,8.78v106.34l-9.3,8.13c9.88,5.87,17.82,14.53,22.8,24.9,5.03-10.53,13.04-19.35,23.03-25.36l-8.1-7.5-.23-30.25,36.76,.23v30.47l-8.87,7.23c11.21,4.37,19.79,13.63,23.32,25.13,5.7-9.99,13.57-18.58,23.03-25.13l-9.3-6.98V112.41Zm-28.17,57h-36.53v-50.52c9.48-10.09,25.34-10.58,35.43-1.1,.38,.35,.74,.72,1.1,1.1v50.52Z"/><path class="cls-1" d="M1720.27,112.41l12-8.32c-22.61,.01-44.11-9.81-58.91-26.9-13.85,17.51-35.13,27.48-57.45,26.9l11.28,8.78v106.34l-9.3,8.13c9.88,5.87,17.82,14.53,22.8,24.9,5.02-10.53,13.03-19.35,23.03-25.36l-8.15-7.5-.23-30.25,36.76,.23v30.47l-8.83,7.22c11.2,4.38,19.78,13.64,23.32,25.13,5.69-10,13.56-18.59,23.03-25.13l-9.3-6.98-.04-107.66Zm-28.17,57h-36.53v-50.52c9.48-10.09,25.34-10.58,35.43-1.1,.38,.35,.74,.72,1.1,1.1v50.52Z"/><path class="cls-1" d="M1567.25,190.71c-9.53-16.19-26.7-19.43-29.22-19.85l13.32,1.81c.92,.12,10.03,1.19,16.45-5.67,3.22-3.54,4.99-8.17,4.96-12.95l-.54-42.19,12.12-8.54c-22.95,3.05-45.66-7.08-58.72-26.21-12.42,17.68-33.16,27.61-54.73,26.21l11.18,9.35-.56,106.42-9.07,7.18c10.68,5.36,18.88,14.64,22.88,25.91,5.08-10.71,13.37-19.57,23.71-25.36l-9.37-6.33c-.09-9.38-.19-18.75-.28-28.12-1.97-.6-3.99-1.23-6.06-1.93-2.38-.8-4.69-1.63-6.89-2.49h31.43c4.61,.31,8.98,2.16,12.41,5.25,6.48,6.06,8.04,16.65,3.89,26.46l-8.82,6.89c10.1,6.21,18.3,15.08,23.71,25.64,4.89-10.54,12.62-19.52,22.33-25.91l-9.07-7.18c1.7-9.76-.08-19.8-5.04-28.38Zm-56.66-23.43v-48.16c3.75-5.18,9.61-8.42,15.98-8.86,11.06-.51,17.49,8.26,17.92,8.86,0,0,.35,10.61,0,32-.35,21.39-33.9,16.17-33.9,16.17Z"/></g><g><path class="cls-1" d="M491.56,275.57c4.45,11.71,21.48,20.54,51.08,26.48l-8.96,8.91v23.42c-6.72,.17-12.11,1.23-16.16,3.18-4.05,1.95-7.63,5.31-10.73,10.06v-26.73c0-4.41-1.45-7.72-4.35-9.93-2.9-2.2-6.23-3.31-9.99-3.31-4.78,0-9.13,1.11-13.06,3.31-3.93,2.21-5.89,5.52-5.89,9.93v35.64h60.94c-6.35,5.77-9.94,12.98-10.8,21.64h-50.14v36.15l8.96,8.91c-5.46,3.74-10.03,7.73-13.7,11.97-3.67,4.24-6.62,9.17-8.83,14.77-2.22-5.6-5.08-10.52-8.58-14.77-3.5-4.24-7.73-8.23-12.67-11.97l7.94-8.91v-103.37l-9.73-8.91c30.28-5.77,48.51-14.6,54.67-26.48Z"/><path class="cls-1" d="M713.43,334.38c-6.66,.17-11.99,1.23-16,3.18-4.01,1.95-7.64,5.31-10.88,10.06v-26.48c0-4.41-1.92-7.76-5.76-10.06-3.84-2.29-8.15-3.44-12.93-3.44s-9.13,1.15-13.06,3.44c-3.93,2.29-5.89,5.64-5.89,10.06v33.35h62.48c-3.76,2.38-6.53,5.39-8.32,9.04-1.79,3.65-2.86,7.43-3.2,11.33h-50.95v29.53c0,4.42,1.96,7.73,5.89,9.93,3.92,2.21,8.28,3.31,13.06,3.31s9.09-1.1,12.93-3.31c3.84-2.2,5.76-5.51,5.76-9.93v-21.39c3.24,4.85,6.87,8.26,10.88,10.25,4.01,1.99,9.35,3.07,16,3.24v17.9l10.76,8.83c-4.61,1.02-9.69,2.16-15.24,3.44-5.55,1.27-10.88,2.93-16,4.96s-9.9,4.54-14.34,7.51c-4.44,2.97-8.03,6.58-10.76,10.82-7.17-12.05-26.03-20.96-56.59-26.73l10.76-8.91v-103.37l-10.76-8.91c30.55-5.77,49.42-14.6,56.59-26.48,6.83,11.71,25.61,20.54,56.33,26.48l-10.76,8.91v23.42Z"/><path class="cls-1" d="M896.5,340.75c-6.66,.17-11.99,1.23-16,3.18-4.01,1.95-7.64,5.31-10.88,10.06v-31.82c0-4.41-1.96-7.72-5.89-9.93-3.93-2.2-8.28-3.31-13.06-3.31s-9.13,1.11-13.06,3.31c-3.93,2.21-5.89,5.52-5.89,9.93v21.9l64.78,23.42v46.85l10.76,8.91c-30.9,5.77-49.76,14.6-56.59,26.48-6.83-11.71-25.61-20.53-56.33-26.48l10.5-8.91v-25.46c6.66-.17,12.03-1.27,16.13-3.31,4.1-2.04,7.68-5.35,10.76-9.93v30.55c0,4.42,1.96,7.38,5.89,8.91,3.92,1.53,8.28,2.29,13.06,2.29s9.13-.76,13.06-2.29c3.92-1.53,5.89-4.49,5.89-8.91v-19.09l16.64,2.29-16.64-6.36-64.78-23.42v-47.61l-10.5-8.91c30.73-5.94,49.5-14.77,56.33-26.48,6.82,11.88,25.69,20.71,56.59,26.48l-10.76,8.91v28.77Z"/><path class="cls-1" d="M1075.23,348.39c-7.85-1.19-15.36,1.27-22.53,7.38v-43.28l-9.22-1.27v103.11l8.96,8.91c-10.8,6.96-18.27,15.78-22.41,26.48-4.14-10.69-11.61-19.52-22.41-26.48l8.96-8.91v-103.11l-9.73,2.04v42.52c-5.29-5.77-12.63-8.31-22.02-7.64v-39.46l-6.66-5.86c23.56-5.94,40.88-14.68,51.98-26.22,5.97,5.94,12.37,11.07,19.2,15.4,6.82,4.33,17.75,8.02,32.77,11.07l-6.91,5.86v39.46Z"/><path class="cls-1" d="M1189.94,414.33l11.78,8.91c-7.17,3.74-12.61,7.73-16.31,11.97-3.7,4.24-6.67,9.08-8.91,14.51-2.24-5.43-5.21-10.27-8.91-14.51-3.7-4.24-9.31-8.23-16.82-11.97l12.29-8.91v-102.6l-12.29-8.66c7.51-3.73,13.11-7.72,16.82-11.97,3.7-4.24,6.67-9.17,8.91-14.77,2.24,5.6,5.21,10.53,8.91,14.77,3.7,4.24,9.14,8.23,16.31,11.97l-11.78,8.66v102.6Z"/><path class="cls-1" d="M1358.29,276.59c4.22,11.04,11.61,19.86,22.15,26.48l-8.96,8.91v56.77c0,11.71-.89,21.22-2.68,28.51-1.79,7.3-4.13,13.24-7.02,17.82-2.9,4.58-6.09,8.19-9.58,10.82-3.49,2.63-6.94,5.01-10.34,7.13-3.4,2.12-6.55,4.37-9.44,6.75-2.9,2.38-5.11,5.69-6.64,9.93-1.7-4.24-4.04-7.59-7.02-10.06-2.98-2.46-6.17-4.71-9.58-6.75-3.4-2.04-6.81-4.33-10.22-6.87-3.4-2.55-6.47-6.11-9.19-10.69-2.72-4.58-4.98-10.57-6.77-17.95-1.79-7.38-2.68-16.93-2.68-28.64v-56.77l-8.96-8.91c4.95-3.22,9.36-7.04,13.24-11.46,3.87-4.41,6.93-9.42,9.17-15.02,2.24,5.6,5.3,10.61,9.17,15.02,3.87,4.42,8.28,8.23,13.24,11.46l-8.96,8.91v56.77c0,5.6,.37,11.29,1.14,17.06,.76,5.77,2.28,11.03,4.55,15.78,2.27,4.75,5.47,8.78,9.6,12.09s9.65,5.31,16.56,5.98l-10.21-6.36c3.79-2.71,6.76-5.77,8.91-9.17,2.15-3.39,3.74-7,4.78-10.82s1.64-7.8,1.81-11.97c.17-4.16,.26-8.36,.26-12.6v-56.77l-8.96-8.91c5.12-3.22,9.59-7.08,13.39-11.58,3.81-4.49,6.89-9.46,9.26-14.89Z"/><path class="cls-1" d="M1551.49,414.83l8.96,8.4c-10.76,6.79-18.18,15.62-22.28,26.48-2.22-5.6-5.16-10.52-8.83-14.77-3.67-4.24-8.24-8.15-13.7-11.71l8.96-8.4v-30.04h-37.64v30.04l8.96,8.4c-5.29,3.56-9.79,7.47-13.49,11.71-3.7,4.24-6.67,9.17-8.91,14.77-2.24-5.6-5.21-10.52-8.91-14.77-3.7-4.24-8.29-8.15-13.75-11.71l9.22-8.4v-103.87l-10.76-8.91c30.73-5.94,49.5-14.77,56.33-26.48,6.82,11.88,25.69,20.71,56.59,26.48l-10.76,8.91v103.87Zm-26.89-50.16v-43.28c0-4.41-1.95-7.72-5.85-9.93-3.9-2.2-8.23-3.31-12.97-3.31s-9.07,1.11-12.97,3.31c-3.9,2.21-5.85,5.52-5.85,9.93v43.28h37.64Z"/><path class="cls-1" d="M1721.25,414.33l11.01,8.91c-4.78,.85-11.57,4.54-20.36,11.07-8.79,6.54-15.49,12.01-20.1,16.42-22.19-15.44-41.06-24.61-56.59-27.5l10.76-8.91v-103.37l-8.96-8.91c10.71-6.96,18.09-15.78,22.15-26.48,2.36,5.43,5.33,10.31,8.88,14.64,3.55,4.33,8.15,8.27,13.78,11.84l-8.96,8.91v93.18c0,4.42,1.98,7.73,5.96,9.93,3.97,2.21,8.29,3.31,12.96,3.31,2.41-3.73,3.27-8.15,2.59-13.24v-17.57c4.1,3.23,8.23,5.52,12.42,6.87,4.18,1.36,9,1.95,14.47,1.78v19.09Z"/></g></g></g></svg>