<?xml version="1.0" encoding="UTF-8"?><svg id="Layer_2" xmlns="http://www.w3.org/2000/svg" viewBox="0 0 381.09 453.46"><defs><style>.cls-1{fill:#fff;}</style></defs><g id="Layer_2-2"><path class="cls-1" d="M196.5,72.46v.77l1.44,.51c1.45,.51,1.86,3.38,1.86,3.38l1.03,18.46-2.88,2.56v1.49l3.09,2.05,.1,7.9-1.64,1.54v5.13l1.54,1.28s9.23,7.49,11.38,8.62c2.15,1.13,1.73,4.21,1.73,4.21l.26,33.41-3.22,3.22,2.38,1.49,.09,6.18c-1.49,20.95,18.51,36.52,18.51,36.52l4.38-11.85,1.37-3.74h-1.91v-11.2h4.13v-2.36h-2.76l-.19-13.78h2.95s-1.77-7.69,1.18-8.46c2.95-.77,4.73-4.13,4.53-5.13-.21-1-2.04-1.28-.65-2.28,1.38-1,1.64-5.26,1.58-6.58-.06-.55-.06-1.1,0-1.64,0,0-2.56-1.67-2.29-3.46,.09-.49,.34-.94,.71-1.28,.51-.38,1.1-.62,1.73-.72v-4.23l-2.77,6.23,3.45-11.91v9.88c.69,.06,1.36,.32,1.91,.74,2.29,2.18-1.59,4.68-1.59,4.68,.06,.55,.06,1.1,0,1.64-.08,1.28,.19,5.59,1.58,6.58,1.38,.99-.46,1.28-.65,2.28-.19,1,1.56,4.33,4.53,5.13,2.96,.79,1.18,8.46,1.18,8.46h2.95l-.19,13.78h-2.76v2.36h4.13v11.22h-1.96l1.37,3.74s5.47,14.53,6.5,17.68c1.03,3.15,5.13,4.1,5.13,4.1l14.27,4.22-3.33,5.54c-1.93,3.08-3.23,6.52-3.85,10.1l1.21,21.46h7.14s0,.91-2.28,4.03c-2.28,3.12-3.4,11.54-3.4,11.54l1.22,32.05h5.56l-2.56,3.12c-1.56,1.94-2.59,4.24-3,6.69v66.15c-25.78,.15-155.46,.14-180.33,0v-66.15c-.41-2.45-1.44-4.76-3-6.69l-2.56-3.12h5.56l1.28-32.05s-1.1-8.42-3.4-11.54c-2.29-3.12-2.28-4.03-2.28-4.03h7.14l1.21-21.46c-.61-3.59-1.92-7.02-3.85-10.1,0,0,.36,.33,.15,0l-3.33-5.54,14.19-4.09s4.09-.94,5.13-4.1c1.04-3.17,6.5-17.68,6.5-17.68l1.37-3.74h-1.96v-11.28h4.13v-2.36h-2.76l-.19-13.78h2.95s-1.77-7.69,1.18-8.46c2.95-.77,4.73-4.13,4.53-5.13-.21-1-2.04-1.28-.65-2.28,1.38-1,1.64-5.26,1.58-6.58-.06-.55-.06-1.1,0-1.64,0,0-.26-.17-.6-.45h0l-.17-.14-.09-.08-.13-.12-.15-.15h-.06l-.23-.26h0c-.66-.57-1-1.43-.94-2.29,.08-.49,.33-.94,.69-1.28,.51-.38,1.1-.62,1.73-.72h.14v-3.95l-6.86-5.59,7.55-.06v9.64c.63,.09,1.22,.34,1.73,.72,.21,.2,.39,.43,.53,.69h0s0,.06,0,.09c.05,.12,.09,.25,.12,.38,.29,1.79-2.29,3.46-2.29,3.46,.06,.55,.06,1.1,0,1.64-.08,1.28,.19,5.59,1.58,6.58,1.38,.99-.46,1.28-.65,2.28-.19,1,1.56,4.33,4.53,5.13,2.96,.79,1.18,8.46,1.18,8.46h2.95l-.09,13.88h-2.76v2.36h4.13v11.22h-1.96l1.37,3.74,4.35,11.83s20.05-15.59,18.56-36.63l.08-6.18,2.4-1.49-3.17-3.14,.26-33.41s-.42-3.08,1.73-4.21c2.15-1.13,11.38-8.62,11.38-8.62l1.54-1.28v-5.13l-1.64-1.54,.1-7.9,3.08-2.05v-1.46l-2.87-2.56,1.03-18.46s.41-2.87,1.85-3.38l1.44-.51v-.77C79.41,75.75-3.19,163.69,.09,268.87c3.29,105.18,91.22,187.79,196.41,184.5,105.18-3.29,187.79-91.22,184.5-196.41-3.14-100.56-83.93-181.35-184.5-184.5Z"/><path class="cls-1" d="M238.87,316.74c18.35,0,33.23-14.86,33.24-33.21,0-18.35-14.86-33.23-33.21-33.24-18.35,0-33.23,14.86-33.24,33.21h0c0,18.35,14.87,33.22,33.21,33.24Zm-23.79-33.64c-.41,.44-.97,.7-1.57,.74-.28-.01-.55-.09-.8-.23-.55-.29-.43-.6-.88-.92-.44-.19-.9-.32-1.37-.38-1.1-.25-1.48-.32-1.55-.54-.01-.05-.01-.1,0-.15-.02-.04-.02-.09,0-.14,0-.22,.45-.29,1.54-.55,.47-.08,.93-.22,1.37-.41,.44-.33,.33-.63,.86-.93,.24-.15,.51-.23,.78-.25,.6,.04,1.17,.29,1.59,.71,.11,.13,.23,.24,.37,.33,.24,.17,.53,.27,.82,.29,.2,.02,.41,0,.6-.07,.45-.22,.44-.74,.59-1.81,.15-1.07,1.37-1.37,2.43-1.08,1.11,.41,2.12,1.05,2.97,1.88,.82,.71,1.37,.29,1.37,.29,.16-.45,.49-.81,.92-1.02,.63-.25,1.55,.63,1.54,1.37-.01,.11,.04,.21,.12,.27,.18,.07,.37,.07,.55,0,.3-.16,.67-.74,.92-.73,.25,.01,.59,.27,.88,.48,.53,.33,1.14,.5,1.76,.49,1.19,.35,2.46,.21,3.56-.37,.44-.3,.84-.88,1.37-.82,.31,.06,.62,.16,.91,.29l.44,.18c.28,.1,.57,.18,.86,.23,.17,.02,.34,.02,.51,0,.19,0,.37-.04,.54-.12l.14-.12c.1-.1,.21-.18,.33-.25h0c.21-.16,.45-.27,.7-.34h.12c.59-.55,.55-2.21,.54-2.58,0-.89-.19-1.26,.1-1.69,.26-.49,.87-.67,1.36-.41h.02l.33,.23c.41-.28,.93-.31,1.37-.1,.42,.23,.69,.66,.71,1.14l.37,.14c.19,.09,.34,.23,.44,.41,.12,.28,.12,.59,0,.86-.15,.48-.55,.59-1.28,1.11-.7,.44-1.28,1.06-1.69,1.78,.2,.22,.32,.5,.34,.8,.12,.61-.06,1.25-.49,1.7l-.08,.07c-.15,.11-.3,.22-.45,.32-.28,.18-.6,.29-.93,.33,0,.08,0,.16,0,.23-.02,.23-.02,.47,0,.7v.38c.03,.25,.03,.5,0,.76-.14,.4-.78,.43-1.21,.59s-1.1,.73-1.51,2.29c-.2,.43-.25,.91-.14,1.37,.08,.29,.26,.56,.14,.82s-.71,.16-.96,.32c-.25,.15-.26,.21-.23,.34s.16,.18,.22,.21c.65,.32,1.14,1.37,.7,1.66-.37,.21-.8,.28-1.22,.19,0,0-.55,.15-.18,1.03,.46,.89,.7,1.87,.7,2.87-.07,.76-.73,1.31-1.49,1.25-.1,0-.19-.03-.29-.06-1.02-.37-1.48-.6-1.83-.38-.13,.1-.22,.23-.26,.38-.08,.22-.08,.46,0,.69,.04,.14,.09,.27,.16,.4,.23,.42,.28,.92,.12,1.37-.12,.19-.28,.34-.48,.44-.45,.25-.69,0-1.13,.19-.11,0-.16,.08-.85,.8-.69,.71-.78,.86-1,.82-.05,0-.1-.03-.14-.07h-.12c-.16-.15-.11-.45,0-1.3,.11-.85,.15-1.06,.12-1.15-.14-.45-.45-.51-.54-1.02-.07-.21-.07-.44,0-.65,.27-.41,.7-.68,1.18-.76,.14-.02,.28-.06,.41-.11,.22-.08,.41-.23,.55-.43,.09-.13,.14-.29,.15-.45,0-.4-.51-.62-1.37-1.21-.62-.43-.77-1.29-.34-1.91,.06-.08,.13-.16,.2-.23,.81-.6,1.75-1.01,2.75-1.18,.92-.23,.71-.77,.71-.77-.32-.28-.53-.66-.6-1.08,0-.55,1.11-.78,1.76-.45,0,0,.19,.1,.29,0s.16-.26,.14-.4-.43-.78-.33-.95c.1-.16,.45-.27,.73-.38,.45-.19,.82-.54,1.04-.97,1-1.28,1.06-2.07,.91-2.58-.15-.51-.49-.97-.26-1.37,.17-.19,.36-.36,.58-.49l.3-.21c.19-.14,.36-.31,.52-.48h0c-.1-.01-.21-.01-.32,0-.17,0-.34,.03-.51,.07-.29,.06-.58,.15-.85,.26-.15,.05-.3,.11-.44,.18-.29,.13-.59,.24-.91,.3-.55,0-.96-.51-1.37-.81-1.1-.56-2.38-.67-3.57-.32-.62,0-1.22,.18-1.73,.52-.29,.21-.51,.48-.88,.49-.37,.01-.62-.56-.93-.71-.17-.08-.38-.08-.55,0-.12,.07-.11,.23-.11,.29,0,.73-.89,1.61-1.54,1.37-.5-.17-.9-.55-1.1-1.04,0,0-.51-.43-1.37,.3-.83,.85-1.83,1.51-2.94,1.92-1.04,.27-2.29-.08-2.44-1.04-.15-.96-.16-1.59-.62-1.8-.2-.05-.41-.05-.6,0-.3,.02-.58,.12-.82,.29-.09,.07-.18,.14-.26,.22h0Z"/><path class="cls-1" d="M196.92,72.45v-.71l1.66-1.37-.34-5.93-4.39-3.73h0l-1.15-14.85s-.3-1.24,0-1.57c.69-.47,1.25-1.12,1.61-1.88,.6-1.24-.15-3.72-1.54-3.9-1.39-.18-1.1-1.37-1.1-1.37v-13.1c.65-.43,1.2-.99,1.62-1.65,.66-.96,1-2.11,.96-3.28-.05-1.5-.73-2.91-1.87-3.89-.46-.25-.86-.58-1.18-.99-.25-.42-.4-.89-.44-1.37-.14-1.49-.2-2.99-.18-4.49h0c.03-.9,.19-1.79,.47-2.65,.12-.39,.31-.76,.58-1.07,.26-.33,.59-.6,.96-.8,.44-.29,.14-2.28,.22-2.53s1.03-.66,.97-.92-.69-.37-1.11-.4-.81,.52-.81,.52c0,0-.44,1.37-.65,2.47s-1.81,.71-1.81,.71c0,0,.27-.96-1.29-.91-1.57,.05-1.66,4.12-1.66,4.12,.49-.21,.95-.49,1.37-.81,.34-.29,.74-.52,1.17-.66,.15,.17,.29,.36,.41,.55,.38,.64,.63,1.36,.71,2.1,0,.62,0,1.24,.07,1.85,0,2.07,0,3.75-.55,4.34-.34,.36-.72,.69-1.13,.97h0c-1.16,.98-1.87,2.39-1.95,3.91,0,1.97,.98,3.82,2.62,4.91l.07,13.1s.3,1.13-1.08,1.37c-1.39,.25-2.13,2.68-1.51,3.91,.36,.76,.92,1.41,1.62,1.87,.37,.33,.08,1.57,.08,1.57l-1.06,14.85h0l-4.39,3.73-.33,5.93,1.65,1.37v.71c2.1,0,4.2-.11,6.3-.11s4.26-.03,6.4,.04Z"/></g></svg>